<?xml version="1.0" encoding="UTF-8" standalone="no"?>
<!DOCTYPE svg PUBLIC "-//W3C//DTD SVG 1.1//EN" "http://www.w3.org/Graphics/SVG/1.1/DTD/svg11.dtd">
<svg version="1.1" xmlns="http://www.w3.org/2000/svg" xmlns:xlink="http://www.w3.org/1999/xlink" preserveAspectRatio="xMidYMid meet" viewBox="-5 -5 360 495" width="349.67" height="484.22">
<defs>
<path d="M349.67 299.12C292.78 231.88 257.22 189.86 243 173.05C233.75 162.12 231.05 147.07 235.91 133.61C237.93 128.01 234.34 137.96 235.91 133.61C241.04 119.41 258.16 113.84 270.66 122.29C275.13 125.32 265.73 118.96 270.66 122.29C282.59 130.36 284.86 147 275.53 157.97C269.63 164.91 279.03 153.86 275.53 157.97C256 180.95 232.67 200.41 206.56 215.51C196.76 221.17 214.45 210.94 206.56 215.51C174.26 234.18 146.27 259.47 124.42 289.71C120.27 295.46 131.05 280.54 124.42 289.71C112.15 306.71 112.72 329.8 125.81 346.16C128.02 348.92 121.38 340.62 125.81 346.16C131.99 353.88 143.13 355.42 151.16 349.66C162.94 341.21 148.29 351.71 151.16 349.66C180.06 328.93 180.02 285.94 151.08 265.27C141.6 258.49 156.7 269.28 143.36 259.75C120.3 243.28 88.81 245.47 68.26 264.96C54.05 278.42 75.34 258.24 68.26 264.96C25.83 305.18 13.85 368.02 38.49 421.03C44.89 434.79 30.24 403.28 38.49 421.03C57.73 462.41 100.66 487.47 146.14 483.88C162.53 482.58 131.01 485.07 146.14 483.88C196.81 479.88 241.49 449.11 263.28 403.19C269.23 390.67 256.24 418.03 263.28 403.19C281.48 364.86 276.31 319.52 249.94 286.28C233.12 265.07 242.63 277.06 230.03 261.18C187.57 207.63 154.71 147.13 132.92 82.37C129.55 72.37 139.51 101.94 132.92 82.37C123.11 53.22 135.05 21.2 161.54 5.59C167.93 1.82 152.45 10.94 161.54 5.59C179.61 -5.06 202.81 -0.09 214.93 17.02C220.04 24.24 215.23 17.45 220.67 25.12C232.58 41.94 232.76 64.39 221.12 81.4C214.22 91.5 225 75.74 221.12 81.4C198.6 114.33 166.89 139.91 129.94 154.96C112.62 162.02 69.3 179.66 0 207.9" id="dnIsRklsU">
</path>
</defs>
<g><g><g>
<use xlink:href="#dnIsRklsU" opacity="1" fill-opacity="0" stroke="#214180" stroke-width="10" stroke-opacity="1">
</use></g></g></g>

<defs>
<path d="M68.96 166.03C67.61 217.12 66.76 249.05 66.42 261.82C65.83 284.33 83.25 303.22 105.73 304.45C109.25 304.64 118.04 305.12 132.1 305.88C109.14 320.11 94.8 329 89.06 332.56C78.26 339.25 72.21 351.49 73.45 364.13C74.26 372.37 76.28 392.98 79.52 425.96C100.14 413.95 113.02 406.45 118.18 403.45C137.88 391.97 149.42 370.35 147.97 347.59C147.72 343.75 147.11 334.13 146.13 318.74C153.56 331.66 158.21 339.73 160.07 342.96C169.2 358.83 185.4 369.33 203.61 371.18C210.54 371.89 227.84 373.65 255.54 376.48C249.05 350 244.99 333.46 243.36 326.84C239.8 312.32 226.96 301.99 212.02 301.61C204.12 301.41 184.36 300.91 152.74 300.11C181.3 295.99 199.14 293.41 206.28 292.38C223.08 289.96 238.32 281.22 248.89 267.95C252.48 263.45 261.44 252.2 275.77 234.21C249.27 226.95 232.7 222.42 226.07 220.6C205.92 215.09 184.61 224.05 174.46 242.32C171.25 248.11 163.2 262.59 150.33 285.75C150.33 259.97 150.33 243.86 150.33 237.41C150.33 218.97 139.97 202.1 123.53 193.75C116.26 190.05 98.06 180.82 68.96 166.03Z" id="c1gsKjpEE4">
</path>
</defs>
<g><g><g>
<use xlink:href="#c1gsKjpEE4" opacity="1" fill="#214180" fill-opacity="1" stroke="#1fc296" stroke-width="10" stroke-opacity="1">
</use>
</g></g></g>

</svg>