<?xml version="1.0" encoding="UTF-8" standalone="no"?>
<!DOCTYPE svg PUBLIC "-//W3C//DTD SVG 1.1//EN" "http://www.w3.org/Graphics/SVG/1.1/DTD/svg11.dtd">
<svg version="1.1" xmlns="http://www.w3.org/2000/svg" xmlns:xlink="http://www.w3.org/1999/xlink" preserveAspectRatio="xMidYMid meet" viewBox="-5 -5 325 330" width="450" height="450">
	<defs>
		<path d="M214.7 243.1C209.16 236.64 199.11 236.83 193.81 243.48C185.36 254.09 164.82 279.87 155.02 292.17C153.56 294 150.66 293.43 150 291.2C142.29 265.32 123.04 200.64 92.24 97.14C196.78 133.29 262.11 155.87 288.25 164.91C290.02 165.52 290.34 167.9 288.78 168.96C276.03 177.61 248.76 196.11 237.81 203.54C231.33 207.94 230.73 217.27 236.6 222.46C251.94 236.03 289.61 269.34 305.76 283.62C309.78 287.18 309.84 293.44 305.88 297.07C300.87 301.67 293.04 308.84 287.98 313.48C284.07 317.07 277.97 316.71 274.51 312.68C260.41 296.28 227.93 258.48 214.7 243.1Z" id="a5zrxxbpdT">
		</path>
		<path d="M51.08 70.17C67.34 79.4 77.5 85.18 81.57 87.49C82.27 87.89 83.07 87.17 82.76 86.43C81.2 82.69 77.3 73.34 71.05 58.38C79.56 50.61 84.87 45.76 87 43.82C87.56 43.31 87.22 42.38 86.46 42.35C83.45 42.21 75.91 41.88 63.84 41.35C58.13 29.08 54.55 21.42 53.13 18.35C52.6 17.22 51 17.19 50.43 18.3C48.84 21.37 44.87 29.05 38.52 41.35C25.54 43.26 17.42 44.46 14.18 44.94C13.35 45.06 13.1 46.13 13.78 46.61C16.24 48.32 22.37 52.61 32.18 59.47C25.08 73.89 20.63 82.9 18.86 86.51C18.53 87.18 19.26 87.88 19.92 87.51C24.07 85.2 34.46 79.42 51.08 70.17Z" id="dkTiqvlDq">
		</path>
	</defs>
	<g><g><g>
		<use xlink:href="#a5zrxxbpdT" opacity="1" fill-opacity="0" stroke="#214180" stroke-width="10" stroke-opacity="1">
		</use>
		<use xlink:href="#dkTiqvlDq" opacity="1" fill="#214180" fill-opacity="1" stroke="#1fc296" stroke-width="10" stroke-opacity="1">
		</use>
	</g></g></g>
</svg>