<?xml version="1.0" encoding="UTF-8" standalone="no"?>
<!DOCTYPE svg PUBLIC "-//W3C//DTD SVG 1.1//EN" "http://www.w3.org/Graphics/SVG/1.1/DTD/svg11.dtd">
<svg version="1.1" xmlns="http://www.w3.org/2000/svg" xmlns:xlink="http://www.w3.org/1999/xlink" preserveAspectRatio="xMidYMid meet" viewBox="-5 -5 440 480" width="430" height="430">
<defs>
	<path d="M429.23 478.08C418.1 467.16 411.15 460.33 408.36 457.6C363.1 413.16 295.81 399.76 236.98 423.47C212.53 433.32 244.89 420.28 222.65 429.24C152.52 457.5 75.22 462.72 1.92 444.15C1.66 444.08 1.02 443.92 0 443.66" id="a1iMisxJL">
	</path>
	<path d="M368.05 122.39C337.26 122.39 311.36 99.29 307.86 68.7C306.28 54.96 309.01 78.8 307.76 67.9C303.62 31.72 331.91 0 368.33 0C381.69 0 354.66 0 368.33 0C404.16 0 432.23 30.82 428.89 66.5C427.84 77.68 430.09 53.63 428.84 67.04C425.9 98.41 399.56 122.39 368.05 122.39C357.24 122.39 379.17 122.39 368.05 122.39Z" id="c1qLMxcDj">
	</path>
	<path d="M230.58 293L136.72 452.59C139.97 431.89 142 418.95 142.81 413.77C148.31 378.8 166.27 347 193.38 324.23C198.34 320.07 210.74 309.65 230.58 293Z" id="d7DlQou7U">
	</path>
	<path d="M40.56 319.42L136.72 452.22C130.96 428.25 127.36 413.26 125.92 407.27C118.23 375.28 96.95 348.24 67.65 333.27C64.04 331.42 55.01 326.8 40.56 319.42Z" id="e1hngALmJ8">
	</path>
	<path d="M183.65 182.1L136.72 452.22C134.2 424.95 132.63 407.9 132 401.08C124.95 324.77 142.88 248.24 183.09 183C183.17 182.88 183.35 182.58 183.65 182.1Z" id="bCSTBGf3">
	</path>
</defs>

<g><g><g>
	<use xlink:href="#a1iMisxJL" opacity="1" fill-opacity="0" stroke="#214180" stroke-width="10" stroke-opacity="1">
	</use>
	<use xlink:href="#c1qLMxcDj" opacity="1" fill-opacity="0" stroke="#214180" stroke-width="10" stroke-opacity="1">
	</use>
	<use xlink:href="#d7DlQou7U" opacity="1" fill="#214180" fill-opacity="1" stroke="#1fc296" stroke-width="10" stroke-opacity="1">
	</use>
	<use xlink:href="#e1hngALmJ8" opacity="1" fill="#214180" fill-opacity="1" stroke="#1fc296" stroke-width="10" stroke-opacity="1">
	</use>
	<use xlink:href="#bCSTBGf3" opacity="1" fill="#214180" fill-opacity="1" stroke="#1fc296" stroke-width="10" stroke-opacity="1">
	</use>
</g></g></g>
</svg>