<?xml version="1.0" encoding="UTF-8" standalone="no"?>
<svg
   xmlns:dc="http://purl.org/dc/elements/1.1/"
   xmlns:cc="http://creativecommons.org/ns#"
   xmlns:rdf="http://www.w3.org/1999/02/22-rdf-syntax-ns#"
   xmlns:svg="http://www.w3.org/2000/svg"
   xmlns="http://www.w3.org/2000/svg"
   id="svg9995"
   version="1.1"
   viewBox="0 0 13.18037 13.015757"
   height="13.015757mm"
   width="13.180369mm">
  <defs
     id="defs9989" />
  <metadata
     id="metadata9992">
    <rdf:RDF>
      <cc:Work
         rdf:about="">
        <dc:format>image/svg+xml</dc:format>
        <dc:type
           rdf:resource="http://purl.org/dc/dcmitype/StillImage" />
        <dc:title></dc:title>
      </cc:Work>
    </rdf:RDF>
  </metadata>
  <g
     transform="translate(-66.461577,-100.30671)"
     id="layer1">
    <path
       id="path11728"
       d="m 74.171599,101.30914 c 0,0 -2.143739,2.51563 -2.701127,4.00855 -0.413605,1.1078 -0.530654,3.2589 0.649056,3.4866 1.519237,0.29324 2.287209,-1.74431 2.407605,-3.02668 0.122425,-1.30396 -0.355534,-4.46847 -0.355534,-4.46847 z m -7.255888,4.454 c 0,0 0.07745,3.16467 0.680062,4.57853 0.447152,1.04914 1.850382,2.64016 2.92747,2.03398 1.387078,-0.78064 0.568898,-2.71483 -0.227893,-3.69641 -0.81019,-0.99811 -3.379639,-2.9161 -3.379639,-2.9161 z m 11.93674,1.7234 c 0,0 -0.812977,0.22929 -1.788006,0.57361 -0.975064,0.34427 -2.112746,0.80383 -2.764687,1.26453 -0.967534,0.6837 -2.247514,2.37364 -1.342554,3.18223 1.165418,1.04131 2.951736,-0.21349 3.758943,-1.19424 0.820793,-0.99725 2.136304,-3.82613 2.136304,-3.82613 z"
       style="fill:none;fill-opacity:1;stroke:#023148;stroke-width:0.86500001;stroke-linecap:butt;stroke-linejoin:miter;stroke-miterlimit:4;stroke-dasharray:none;stroke-opacity:1" />
  </g>
</svg>
