<?xml version="1.0" encoding="UTF-8" standalone="no"?>
<svg
   xmlns:dc="http://purl.org/dc/elements/1.1/"
   xmlns:cc="http://creativecommons.org/ns#"
   xmlns:rdf="http://www.w3.org/1999/02/22-rdf-syntax-ns#"
   xmlns:svg="http://www.w3.org/2000/svg"
   xmlns="http://www.w3.org/2000/svg"
   id="svg12457"
   version="1.1"
   viewBox="0 0 10.438832 12.197335"
   height="12.197335mm"
   width="10.438832mm">
  <defs
     id="defs12451" />
  <metadata
     id="metadata12454">
    <rdf:RDF>
      <cc:Work
         rdf:about="">
        <dc:format>image/svg+xml</dc:format>
        <dc:type
           rdf:resource="http://purl.org/dc/dcmitype/StillImage" />
        <dc:title></dc:title>
      </cc:Work>
    </rdf:RDF>
  </metadata>
  <g
     transform="translate(-190.57225,-159.36563)"
     id="layer1">
    <path
       id="path12417"
       d="m 195.58555,159.3662 c -0.28798,0.005 -0.58069,0.0356 -0.8754,0.0951 -2.08637,0.421 -3.171,1.95266 -3.67161,3.4122 -0.50061,1.45954 -0.48196,2.86842 -0.45527,3.32021 a 0.43254324,0.43254324 0 1 0 0.86352,-0.0506 c -0.0211,-0.35791 -0.0314,-1.70221 0.40979,-2.98845 0.44117,-1.28624 1.26973,-2.4914 3.02359,-2.84531 1.30166,-0.26265 2.51009,0.12851 3.46077,0.97462 0.95067,0.84611 1.6289,2.15541 1.78542,3.70313 0.11977,1.18428 -0.32198,2.54246 -0.8692,3.65611 -0.54722,1.11365 -1.21308,2.00613 -1.38493,2.2009 a 0.4325656,0.4325656 0 1 0 0.64854,0.57258 c 0.27854,-0.31567 0.92522,-1.19939 1.51154,-2.39262 0.58633,-1.19324 1.10025,-2.67361 0.95343,-4.12533 -0.17673,-1.74741 -0.94211,-3.25727 -2.07016,-4.26124 -0.91653,-0.81573 -2.0821,-1.29163 -3.33003,-1.27124 z m 0.34624,2.12287 c -0.59376,0.0157 -1.21344,0.23619 -1.80765,0.66766 -0.84175,0.6112 -1.28547,1.42532 -1.49603,2.26342 -0.21056,0.8381 -0.20893,1.70387 -0.20309,2.50786 a 0.4328004,0.4328004 0 1 0 0.86558,-0.006 c -0.006,-0.79789 5.3e-4,-1.59407 0.1757,-2.29082 0.17505,-0.69674 0.49845,-1.28951 1.16789,-1.7756 0.64283,-0.46677 1.19558,-0.57513 1.70119,-0.4687 0.5056,0.10642 0.99504,0.45042 1.42162,1.01751 a 0.43254324,0.43254324 0 1 0 0.69143,-0.51935 c -0.5169,-0.68713 -1.17176,-1.1838 -1.93322,-1.34409 -0.19036,-0.0401 -0.38551,-0.0574 -0.58342,-0.0522 z m 0.44183,2.26084 c -0.18868,-0.005 -0.38159,0.0272 -0.56741,0.0961 -0.72071,0.26715 -1.1959,0.79552 -1.42213,1.40818 -0.22624,0.61266 -0.23685,1.29525 -0.1602,1.98438 0.15453,1.38945 1.67977,2.29867 2.97088,1.75389 1.00848,-0.42552 1.46544,-1.39538 1.6738,-2.22622 0.10418,-0.41542 0.14954,-0.80809 0.17156,-1.11517 0.022,-0.30708 0.0209,-0.56003 0.0217,-0.5824 a 0.43289707,0.43289707 0 1 0 -0.86506,-0.031 c -0.004,0.11044 -1.6e-4,0.27877 -0.0196,0.55087 -0.0195,0.2721 -0.0608,0.61793 -0.14831,0.96686 -0.17502,0.69786 -0.51627,1.36352 -1.17203,1.64021 -0.72473,0.3058 -1.68621,-0.26758 -1.77353,-1.05265 -0.0681,-0.61281 -0.0412,-1.17155 0.11317,-1.58956 0.15435,-0.41801 0.40297,-0.70844 0.91054,-0.89659 0.17544,-0.065 0.32595,-0.0499 0.42736,0 0.1014,0.0499 0.17013,0.12375 0.19947,0.28887 0.0959,0.53984 -0.2035,1.03132 -0.66197,1.78697 a 0.43293715,0.43293715 0 1 0 0.74,0.44959 c 0.45171,-0.7445 0.93672,-1.47094 0.7736,-2.389 -0.0727,-0.40933 -0.33258,-0.74589 -0.67025,-0.91209 -0.16883,-0.0831 -0.35289,-0.12603 -0.54157,-0.13126 z"
       style="color:#000000;font-style:normal;font-variant:normal;font-weight:normal;font-stretch:normal;font-size:medium;line-height:normal;font-family:sans-serif;font-variant-ligatures:normal;font-variant-position:normal;font-variant-caps:normal;font-variant-numeric:normal;font-variant-alternates:normal;font-feature-settings:normal;text-indent:0;text-align:start;text-decoration:none;text-decoration-line:none;text-decoration-style:solid;text-decoration-color:#000000;letter-spacing:normal;word-spacing:normal;text-transform:none;writing-mode:lr-tb;direction:ltr;text-orientation:mixed;dominant-baseline:auto;baseline-shift:baseline;text-anchor:start;white-space:normal;shape-padding:0;clip-rule:nonzero;display:inline;overflow:visible;visibility:visible;opacity:1;isolation:auto;mix-blend-mode:normal;color-interpolation:sRGB;color-interpolation-filters:linearRGB;solid-color:#000000;solid-opacity:1;vector-effect:none;fill:#023148;fill-opacity:1;fill-rule:nonzero;stroke:none;stroke-width:0.86500001;stroke-linecap:round;stroke-linejoin:miter;stroke-miterlimit:4;stroke-dasharray:none;stroke-dashoffset:0;stroke-opacity:1;color-rendering:auto;image-rendering:auto;shape-rendering:auto;text-rendering:auto;enable-background:accumulate" />
  </g>
</svg>
