<?xml version="1.0" encoding="UTF-8" standalone="no"?>
<svg
   xmlns:dc="http://purl.org/dc/elements/1.1/"
   xmlns:cc="http://creativecommons.org/ns#"
   xmlns:rdf="http://www.w3.org/1999/02/22-rdf-syntax-ns#"
   xmlns:svg="http://www.w3.org/2000/svg"
   xmlns="http://www.w3.org/2000/svg"
   id="svg8"
   version="1.1"
   viewBox="0 0 33.072918 54.583233"
   height="54.583233mm"
   width="33.072918mm">
  <defs
     id="defs2" />
  <metadata
     id="metadata5">
    <rdf:RDF>
      <cc:Work
         rdf:about="">
        <dc:format>image/svg+xml</dc:format>
        <dc:type
           rdf:resource="http://purl.org/dc/dcmitype/StillImage" />
        <dc:title></dc:title>
      </cc:Work>
    </rdf:RDF>
  </metadata>
  <g
     transform="translate(-20.716007,-16.634266)"
     id="layer1">
    <path
       transform="matrix(0.26458333,0,0,0.26458333,20.283475,16.634266)"
       id="path815"
       d="M 64.134766,177.01367 A 62.500002,14.642858 0 0 0 1.6347656,191.65625 62.500002,14.642858 0 0 0 64.134766,206.29883 62.500002,14.642858 0 0 0 126.63477,191.65625 62.500002,14.642858 0 0 0 64.134766,177.01367 Z m 0,2.81641 a 41.428564,11.826923 0 0 1 4.136718,0.0586 41.428564,11.826923 0 0 1 4.09375,0.17578 41.428564,11.826923 0 0 1 4.011719,0.29297 41.428564,11.826923 0 0 1 3.890625,0.40625 41.428564,11.826923 0 0 1 3.728516,0.51367 41.428564,11.826923 0 0 1 3.53125,0.61719 41.428564,11.826923 0 0 1 3.296875,0.7168 41.428564,11.826923 0 0 1 3.029297,0.80469 41.428564,11.826923 0 0 1 2.732422,0.88867 41.428564,11.826923 0 0 1 2.410156,0.96093 41.428564,11.826923 0 0 1 2.060546,1.0254 41.428564,11.826923 0 0 1 1.69141,1.08007 41.428564,11.826923 0 0 1 1.30468,1.1211 41.428564,11.826923 0 0 1 0.90821,1.15429 41.428564,11.826923 0 0 1 0.49804,1.17383 41.428564,11.826923 0 0 1 0.10352,0.83594 41.428564,11.826923 0 0 1 -0.20703,1.17969 41.428564,11.826923 0 0 1 -0.61719,1.16992 41.428564,11.826923 0 0 1 -1.02539,1.14453 41.428564,11.826923 0 0 1 -1.41992,1.11133 41.428564,11.826923 0 0 1 -1.80078,1.06445 41.428564,11.826923 0 0 1 -2.166018,1.00781 41.428564,11.826923 0 0 1 -2.50586,0.94141 41.428564,11.826923 0 0 1 -2.822265,0.86523 41.428564,11.826923 0 0 1 -3.111328,0.7793 41.428564,11.826923 0 0 1 -3.367188,0.6875 41.428564,11.826923 0 0 1 -3.59375,0.58985 41.428564,11.826923 0 0 1 -3.779297,0.48242 41.428564,11.826923 0 0 1 -3.929687,0.37304 41.428564,11.826923 0 0 1 -4.041016,0.25782 41.428564,11.826923 0 0 1 -4.111328,0.14257 41.428564,11.826923 0 0 1 -2.929687,0.0293 41.428564,11.826923 0 0 1 -4.136719,-0.0586 41.428564,11.826923 0 0 1 -4.09375,-0.17578 41.428564,11.826923 0 0 1 -4.011719,-0.29297 41.428564,11.826923 0 0 1 -3.890625,-0.40625 41.428564,11.826923 0 0 1 -3.728515,-0.51367 41.428564,11.826923 0 0 1 -3.53125,-0.61719 41.428564,11.826923 0 0 1 -3.296876,-0.7168 41.428564,11.826923 0 0 1 -3.029296,-0.80469 41.428564,11.826923 0 0 1 -2.734375,-0.88867 41.428564,11.826923 0 0 1 -2.408203,-0.96093 41.428564,11.826923 0 0 1 -2.060547,-1.0254 41.428564,11.826923 0 0 1 -1.691407,-1.08007 41.428564,11.826923 0 0 1 -1.30664,-1.1211 41.428564,11.826923 0 0 1 -0.90625,-1.15429 41.428564,11.826923 0 0 1 -0.498047,-1.17383 41.428564,11.826923 0 0 1 -0.103516,-0.83594 41.428564,11.826923 0 0 1 0.205078,-1.18164 41.428564,11.826923 0 0 1 0.619141,-1.16797 41.428564,11.826923 0 0 1 1.025391,-1.14648 41.428564,11.826923 0 0 1 1.419921,-1.10938 41.428564,11.826923 0 0 1 1.800782,-1.06445 41.428564,11.826923 0 0 1 2.164062,-1.00781 41.428564,11.826923 0 0 1 2.507813,-0.94141 41.428564,11.826923 0 0 1 2.822265,-0.86523 41.428564,11.826923 0 0 1 3.111328,-0.7793 41.428564,11.826923 0 0 1 3.367188,-0.6875 41.428564,11.826923 0 0 1 3.59375,-0.58985 41.428564,11.826923 0 0 1 3.779297,-0.48242 41.428564,11.826923 0 0 1 3.929687,-0.37304 41.428564,11.826923 0 0 1 4.041016,-0.25782 41.428564,11.826923 0 0 1 4.111328,-0.14257 41.428564,11.826923 0 0 1 2.929688,-0.0293 z"
       style="fill:#0000ff;fill-opacity:1;fill-rule:nonzero;stroke:none;stroke-width:3.2692914;stroke-linejoin:round;stroke-miterlimit:4;stroke-dasharray:none;stroke-dashoffset:0;stroke-opacity:1" />
    <rect
       ry="3"
       rx="3"
       y="33.608929"
       x="36.118504"
       height="34.206844"
       width="2.2678576"
       id="rect823"
       style="fill:#ff007f;fill-opacity:1;fill-rule:nonzero;stroke:none;stroke-width:0.86500001;stroke-linejoin:round;stroke-miterlimit:4;stroke-dasharray:none;stroke-dashoffset:0;stroke-opacity:1" />
    <path
       transform="matrix(0.26458333,0,0,0.26458333,20.283475,16.634266)"
       id="path825"
       d="M 64.134766,0 A 47.477172,47.477172 0 0 0 16.658203,47.476562 47.477172,47.477172 0 0 0 64.134766,94.955078 47.477172,47.477172 0 0 0 111.61133,47.476562 47.477172,47.477172 0 0 0 64.134766,0 Z M 45.314453,14.142578 a 10.354064,10.354064 0 0 1 1.033203,0.05078 10.354064,10.354064 0 0 1 1.023438,0.154297 10.354064,10.354064 0 0 1 1.001953,0.257813 10.354064,10.354064 0 0 1 0.972656,0.353515 10.354064,10.354064 0 0 1 0.931641,0.451172 10.354064,10.354064 0 0 1 0.882812,0.541016 10.354064,10.354064 0 0 1 0.824219,0.625 10.354064,10.354064 0 0 1 0.757813,0.707031 10.354064,10.354064 0 0 1 0.68164,0.777344 10.354064,10.354064 0 0 1 0.603516,0.841797 10.354064,10.354064 0 0 1 0.513672,0.896484 10.354064,10.354064 0 0 1 0.423828,0.945313 10.354064,10.354064 0 0 1 0.326172,0.982421 10.354064,10.354064 0 0 1 0.226562,1.009766 10.354064,10.354064 0 0 1 0.125,1.027344 10.354064,10.354064 0 0 1 0.02539,0.732422 10.354064,10.354064 0 0 1 -0.05078,1.033203 10.354064,10.354064 0 0 1 -0.15625,1.023437 10.354064,10.354064 0 0 1 -0.25586,1.003907 10.354064,10.354064 0 0 1 -0.353516,0.970703 10.354064,10.354064 0 0 1 -0.451171,0.933594 10.354064,10.354064 0 0 1 -0.541016,0.880859 10.354064,10.354064 0 0 1 -0.626953,0.824219 10.354064,10.354064 0 0 1 -0.705078,0.757812 10.354064,10.354064 0 0 1 -0.777344,0.683594 10.354064,10.354064 0 0 1 -0.841797,0.601562 10.354064,10.354064 0 0 1 -0.898437,0.515625 10.354064,10.354064 0 0 1 -0.94336,0.421875 10.354064,10.354064 0 0 1 -0.982422,0.326172 10.354064,10.354064 0 0 1 -1.009765,0.226563 10.354064,10.354064 0 0 1 -1.027344,0.125 10.354064,10.354064 0 0 1 -0.732422,0.02539 10.354064,10.354064 0 0 1 -1.033203,-0.05078 10.354064,10.354064 0 0 1 -1.023438,-0.154297 10.354064,10.354064 0 0 1 -1.003906,-0.255859 10.354064,10.354064 0 0 1 -0.972656,-0.355469 10.354064,10.354064 0 0 1 -0.931641,-0.451172 10.354064,10.354064 0 0 1 -0.882812,-0.541015 10.354064,10.354064 0 0 1 -0.822266,-0.625 10.354064,10.354064 0 0 1 -0.757812,-0.707032 10.354064,10.354064 0 0 1 -0.683594,-0.777343 10.354064,10.354064 0 0 1 -0.601563,-0.841797 10.354064,10.354064 0 0 1 -0.515624,-0.896485 10.354064,10.354064 0 0 1 -0.421876,-0.945312 10.354064,10.354064 0 0 1 -0.326171,-0.982422 10.354064,10.354064 0 0 1 -0.226563,-1.009766 10.354064,10.354064 0 0 1 -0.125,-1.027343 10.354064,10.354064 0 0 1 -0.02734,-0.732422 10.354064,10.354064 0 0 1 0.05273,-1.033203 10.354064,10.354064 0 0 1 0.154297,-1.023438 10.354064,10.354064 0 0 1 0.255859,-1.003906 10.354064,10.354064 0 0 1 0.355469,-0.970703 10.354064,10.354064 0 0 1 0.449218,-0.933594 10.354064,10.354064 0 0 1 0.541016,-0.880859 10.354064,10.354064 0 0 1 0.626953,-0.824219 10.354064,10.354064 0 0 1 0.705078,-0.757813 10.354064,10.354064 0 0 1 0.777344,-0.683593 10.354064,10.354064 0 0 1 0.841797,-0.601563 10.354064,10.354064 0 0 1 0.898438,-0.513672 10.354064,10.354064 0 0 1 0.945312,-0.423828 10.354064,10.354064 0 0 1 0.982422,-0.326172 10.354064,10.354064 0 0 1 1.009766,-0.226562 10.354064,10.354064 0 0 1 1.027343,-0.125 10.354064,10.354064 0 0 1 0.732422,-0.02539 z"
       style="fill:#00bfff;fill-opacity:1;fill-rule:nonzero;stroke:none;stroke-width:3.2692914;stroke-linejoin:round;stroke-miterlimit:4;stroke-dasharray:none;stroke-dashoffset:0;stroke-opacity:1" />
  </g>
</svg>
