<?xml version="1.0" encoding="UTF-8" standalone="no"?>
<svg
   xmlns:dc="http://purl.org/dc/elements/1.1/"
   xmlns:cc="http://creativecommons.org/ns#"
   xmlns:rdf="http://www.w3.org/1999/02/22-rdf-syntax-ns#"
   xmlns:svg="http://www.w3.org/2000/svg"
   xmlns="http://www.w3.org/2000/svg"
   id="svg2417"
   version="1.1"
   viewBox="0 0 20.70875 20.70875"
   height="20.70875mm"
   width="20.70875mm">
  <defs
     id="defs2411" />
  <metadata
     id="metadata2414">
    <rdf:RDF>
      <cc:Work
         rdf:about="">
        <dc:format>image/svg+xml</dc:format>
        <dc:type
           rdf:resource="http://purl.org/dc/dcmitype/StillImage" />
        <dc:title></dc:title>
      </cc:Work>
    </rdf:RDF>
  </metadata>
  <g
     transform="translate(-171.69361,-226.01644)"
     id="layer1">
    <circle
       r="9.921875"
       cy="236.37082"
       cx="182.04799"
       id="path1456-2"
       style="fill:#023148;fill-opacity:0.97647059;fill-rule:nonzero;stroke:#023148;stroke-width:0.86500001;stroke-linecap:round;stroke-linejoin:round;stroke-miterlimit:4;stroke-dasharray:none;stroke-dashoffset:0;stroke-opacity:1" />
    <path
       id="path1823"
       d="m 180.42712,230.05062 c -2.54143,0 -4.61685,2.07543 -4.61685,4.61686 0,2.54143 2.07542,4.61686 4.61685,4.61686 0.95198,0 1.83848,-0.29132 2.57513,-0.78919 l 3.96978,3.96978 a 0.76905128,0.76905128 0 1 0 1.0876,-1.0876 l -3.94542,-3.94542 c 0.58114,-0.77227 0.93028,-1.72807 0.93028,-2.76443 0,-2.54143 -2.07594,-4.61686 -4.61737,-4.61686 z m 0,1.4383 c 1.76386,0 3.17856,1.4147 3.17856,3.17856 0,1.76386 -1.4147,3.17856 -3.17856,3.17856 -1.76386,0 -3.17805,-1.4147 -3.17805,-3.17856 0,-1.76386 1.41419,-3.17856 3.17805,-3.17856 z"
       style="color:#000000;font-style:normal;font-variant:normal;font-weight:normal;font-stretch:normal;font-size:medium;line-height:normal;font-family:sans-serif;font-variant-ligatures:normal;font-variant-position:normal;font-variant-caps:normal;font-variant-numeric:normal;font-variant-alternates:normal;font-feature-settings:normal;text-indent:0;text-align:start;text-decoration:none;text-decoration-line:none;text-decoration-style:solid;text-decoration-color:#000000;letter-spacing:normal;word-spacing:normal;text-transform:none;writing-mode:lr-tb;direction:ltr;text-orientation:mixed;dominant-baseline:auto;baseline-shift:baseline;text-anchor:start;white-space:normal;shape-padding:0;clip-rule:nonzero;display:inline;overflow:visible;visibility:visible;opacity:1;isolation:auto;mix-blend-mode:normal;color-interpolation:sRGB;color-interpolation-filters:linearRGB;solid-color:#000000;solid-opacity:1;vector-effect:none;fill:#fcfeff;fill-opacity:1;fill-rule:nonzero;stroke:none;stroke-width:1.46500003;stroke-linecap:round;stroke-linejoin:round;stroke-miterlimit:4;stroke-dasharray:none;stroke-dashoffset:0;stroke-opacity:1;color-rendering:auto;image-rendering:auto;shape-rendering:auto;text-rendering:auto;enable-background:accumulate" />
  </g>
</svg>
