<?xml version="1.0" encoding="UTF-8" standalone="no"?>
<svg
   xmlns:dc="http://purl.org/dc/elements/1.1/"
   xmlns:cc="http://creativecommons.org/ns#"
   xmlns:rdf="http://www.w3.org/1999/02/22-rdf-syntax-ns#"
   xmlns:svg="http://www.w3.org/2000/svg"
   xmlns="http://www.w3.org/2000/svg"
   xmlns:sodipodi="http://sodipodi.sourceforge.net/DTD/sodipodi-0.dtd"
   xmlns:inkscape="http://www.inkscape.org/namespaces/inkscape"
   id="svg8"
   version="1.1"
   viewBox="0 0 35.355652 52.923149"
   height="52.923149mm"
   width="35.355652mm"
   sodipodi:docname="icon_pin.svg"
   inkscape:version="0.92.4 (5da689c313, 2019-01-14)">
  <sodipodi:namedview
     pagecolor="#ffffff"
     bordercolor="#666666"
     borderopacity="1"
     objecttolerance="10"
     gridtolerance="10"
     guidetolerance="10"
     inkscape:pageopacity="0"
     inkscape:pageshadow="2"
     inkscape:window-width="2743"
     inkscape:window-height="1464"
     id="namedview1979"
     showgrid="false"
     inkscape:zoom="1.1439716"
     inkscape:cx="70.367331"
     inkscape:cy="100.52697"
     inkscape:window-x="-9"
     inkscape:window-y="-9"
     inkscape:window-maximized="1"
     inkscape:current-layer="layer1" />
  <defs
     id="defs2" />
  <metadata
     id="metadata5">
    <rdf:RDF>
      <cc:Work
         rdf:about="">
        <dc:format>image/svg+xml</dc:format>
        <dc:type
           rdf:resource="http://purl.org/dc/dcmitype/StillImage" />
        <dc:title />
      </cc:Work>
    </rdf:RDF>
  </metadata>
  <g
     transform="translate(-16.552879,-17.600492)"
     id="layer1">
    <path
       id="path815"
       d="M 33.089337,62.775278 A 16.536459,3.8742561 0 0 0 16.552879,66.64946 16.536459,3.8742561 0 0 0 33.089337,70.523643 16.536459,3.8742561 0 0 0 49.625796,66.64946 16.536459,3.8742561 0 0 0 33.089337,62.775278 Z m 0,0.745175 a 10.961307,3.1292067 0 0 1 1.094507,0.0155 10.961307,3.1292067 0 0 1 1.083138,0.04651 10.961307,3.1292067 0 0 1 1.061434,0.07752 10.961307,3.1292067 0 0 1 1.029394,0.107487 10.961307,3.1292067 0 0 1 0.986503,0.135908 10.961307,3.1292067 0 0 1 0.93431,0.163298 10.961307,3.1292067 0 0 1 0.872298,0.189654 10.961307,3.1292067 0 0 1 0.801502,0.212907 10.961307,3.1292067 0 0 1 0.722953,0.235128 10.961307,3.1292067 0 0 1 0.637687,0.254246 10.961307,3.1292067 0 0 1 0.545186,0.271303 10.961307,3.1292067 0 0 1 0.447519,0.285769 10.961307,3.1292067 0 0 1 0.345197,0.296624 10.961307,3.1292067 0 0 1 0.240297,0.305406 10.961307,3.1292067 0 0 1 0.131773,0.310576 10.961307,3.1292067 0 0 1 0.02739,0.221176 10.961307,3.1292067 0 0 1 -0.05478,0.312126 10.961307,3.1292067 0 0 1 -0.163298,0.309541 10.961307,3.1292067 0 0 1 -0.271301,0.302824 10.961307,3.1292067 0 0 1 -0.375687,0.294039 10.961307,3.1292067 0 0 1 -0.476457,0.281636 10.961307,3.1292067 0 0 1 -0.573092,0.26665 10.961307,3.1292067 0 0 1 -0.663009,0.249081 10.961307,3.1292067 0 0 1 -0.746724,0.228926 10.961307,3.1292067 0 0 1 -0.823206,0.206189 10.961307,3.1292067 0 0 1 -0.890901,0.181902 10.961307,3.1292067 0 0 1 -0.950847,0.156064 10.961307,3.1292067 0 0 1 -0.999939,0.12764 10.961307,3.1292067 0 0 1 -1.039729,0.0987 10.961307,3.1292067 0 0 1 -1.069186,0.06821 10.961307,3.1292067 0 0 1 -1.087789,0.03772 10.961307,3.1292067 0 0 1 -0.775146,0.0078 10.961307,3.1292067 0 0 1 -1.094507,-0.0155 10.961307,3.1292067 0 0 1 -1.083138,-0.04651 10.961307,3.1292067 0 0 1 -1.061434,-0.07752 10.961307,3.1292067 0 0 1 -1.029394,-0.107487 10.961307,3.1292067 0 0 1 -0.986503,-0.135908 10.961307,3.1292067 0 0 1 -0.93431,-0.163298 10.961307,3.1292067 0 0 1 -0.872299,-0.189654 10.961307,3.1292067 0 0 1 -0.801501,-0.212907 10.961307,3.1292067 0 0 1 -0.72347,-0.235128 10.961307,3.1292067 0 0 1 -0.63717,-0.254246 10.961307,3.1292067 0 0 1 -0.545187,-0.271303 10.961307,3.1292067 0 0 1 -0.447518,-0.285769 10.961307,3.1292067 0 0 1 -0.345715,-0.296624 10.961307,3.1292067 0 0 1 -0.239779,-0.305406 10.961307,3.1292067 0 0 1 -0.131774,-0.310576 10.961307,3.1292067 0 0 1 -0.02739,-0.221176 10.961307,3.1292067 0 0 1 0.05426,-0.312642 10.961307,3.1292067 0 0 1 0.163815,-0.309025 10.961307,3.1292067 0 0 1 0.271301,-0.30334 10.961307,3.1292067 0 0 1 0.375687,-0.293523 10.961307,3.1292067 0 0 1 0.476457,-0.281636 10.961307,3.1292067 0 0 1 0.572575,-0.26665 10.961307,3.1292067 0 0 1 0.663525,-0.249081 10.961307,3.1292067 0 0 1 0.746725,-0.228926 10.961307,3.1292067 0 0 1 0.823205,-0.206189 10.961307,3.1292067 0 0 1 0.890902,-0.181902 10.961307,3.1292067 0 0 1 0.950846,-0.156064 10.961307,3.1292067 0 0 1 0.999939,-0.12764 10.961307,3.1292067 0 0 1 1.03973,-0.0987 10.961307,3.1292067 0 0 1 1.069186,-0.06821 10.961307,3.1292067 0 0 1 1.087788,-0.03772 10.961307,3.1292067 0 0 1 0.775147,-0.0078 z"
       style="fill:#0000ff;fill-opacity:1;fill-rule:nonzero;stroke:none;stroke-width:0.86500001;stroke-linejoin:round;stroke-miterlimit:4;stroke-dasharray:none;stroke-dashoffset:0;stroke-opacity:1"
       inkscape:connector-curvature="0" />
    <rect
       ry="3"
       rx="3"
       y="27.284359"
       x="42.852886"
       height="34.206844"
       width="2.2678576"
       id="rect823"
       style="fill:#ff007f;fill-opacity:1;fill-rule:nonzero;stroke:none;stroke-width:0.86500001;stroke-linejoin:round;stroke-miterlimit:4;stroke-dasharray:none;stroke-dashoffset:0;stroke-opacity:1"
       transform="rotate(10)" />
    <path
       id="path825"
       d="M 41.528331,17.791304 A 12.561668,12.561668 0 0 0 26.976379,27.98069 12.561668,12.561668 0 0 0 37.165676,42.533151 12.561668,12.561668 0 0 0 51.717718,32.343256 12.561668,12.561668 0 0 0 41.528331,17.791304 Z m -5.553663,2.820355 a 2.7395127,2.7395127 0 0 1 0.266881,0.0607 2.7395127,2.7395127 0 0 1 0.259577,0.08724 2.7395127,2.7395127 0 0 1 0.249229,0.113209 2.7395127,2.7395127 0 0 1 0.237198,0.136796 2.7395127,2.7395127 0 0 1 0.22202,0.160367 2.7395127,2.7395127 0 0 1 0.205173,0.181528 2.7395127,2.7395127 0 0 1 0.186045,0.200722 2.7395127,2.7395127 0 0 1 0.164975,0.219044 2.7395127,2.7395127 0 0 1 0.141897,0.233865 2.7395127,2.7395127 0 0 1 0.118578,0.24707 2.7395127,2.7395127 0 0 1 0.09266,0.257192 2.7395127,2.7395127 0 0 1 0.067,0.265786 2.7395127,2.7395127 0 0 1 0.03985,0.27097 2.7395127,2.7395127 0 0 1 0.01265,0.273518 2.7395127,2.7395127 0 0 1 -0.01463,0.273432 2.7395127,2.7395127 0 0 1 -0.02705,0.192006 2.7395127,2.7395127 0 0 1 -0.06071,0.266881 2.7395127,2.7395127 0 0 1 -0.08774,0.259487 2.7395127,2.7395127 0 0 1 -0.112798,0.249826 2.7395127,2.7395127 0 0 1 -0.136707,0.236689 2.7395127,2.7395127 0 0 1 -0.160447,0.222533 2.7395127,2.7395127 0 0 1 -0.18144,0.204664 2.7395127,2.7395127 0 0 1 -0.201229,0.185957 2.7395127,2.7395127 0 0 1 -0.218535,0.165063 2.7395127,2.7395127 0 0 1 -0.233955,0.142406 2.7395127,2.7395127 0 0 1 -0.246981,0.118069 2.7395127,2.7395127 0 0 1 -0.257789,0.09307 2.7395127,2.7395127 0 0 1 -0.265188,0.06658 2.7395127,2.7395127 0 0 1 -0.27097,0.03985 2.7395127,2.7395127 0 0 1 -0.273516,0.01264 2.7395127,2.7395127 0 0 1 -0.273432,-0.01463 2.7395127,2.7395127 0 0 1 -0.192007,-0.02705 2.7395127,2.7395127 0 0 1 -0.26688,-0.06071 2.7395127,2.7395127 0 0 1 -0.259575,-0.08724 2.7395127,2.7395127 0 0 1 -0.249825,-0.112798 2.7395127,2.7395127 0 0 1 -0.237108,-0.137306 2.7395127,2.7395127 0 0 1 -0.222022,-0.160367 2.7395127,2.7395127 0 0 1 -0.205172,-0.181528 2.7395127,2.7395127 0 0 1 -0.185537,-0.200632 2.7395127,2.7395127 0 0 1 -0.164974,-0.219044 2.7395127,2.7395127 0 0 1 -0.142406,-0.233955 2.7395127,2.7395127 0 0 1 -0.118069,-0.246979 2.7395127,2.7395127 0 0 1 -0.09316,-0.257282 2.7395127,2.7395127 0 0 1 -0.06649,-0.265697 2.7395127,2.7395127 0 0 1 -0.03985,-0.27097 2.7395127,2.7395127 0 0 1 -0.01265,-0.273518 2.7395127,2.7395127 0 0 1 0.01463,-0.273432 2.7395127,2.7395127 0 0 1 0.02656,-0.192092 2.7395127,2.7395127 0 0 1 0.06121,-0.266792 2.7395127,2.7395127 0 0 1 0.08724,-0.259576 2.7395127,2.7395127 0 0 1 0.112798,-0.249826 2.7395127,2.7395127 0 0 1 0.137217,-0.236599 2.7395127,2.7395127 0 0 1 0.159947,-0.22262 2.7395127,2.7395127 0 0 1 0.18144,-0.204664 2.7395127,2.7395127 0 0 1 0.201229,-0.185956 2.7395127,2.7395127 0 0 1 0.218535,-0.165064 2.7395127,2.7395127 0 0 1 0.233956,-0.142405 2.7395127,2.7395127 0 0 1 0.246979,-0.11807 2.7395127,2.7395127 0 0 1 0.257701,-0.09257 2.7395127,2.7395127 0 0 1 0.265787,-0.067 2.7395127,2.7395127 0 0 1 0.270969,-0.03985 2.7395127,2.7395127 0 0 1 0.273517,-0.01264 2.7395127,2.7395127 0 0 1 0.273432,0.01463 2.7395127,2.7395127 0 0 1 0.192006,0.02705 z"
       style="fill:#00bfff;fill-opacity:1;fill-rule:nonzero;stroke:none;stroke-width:0.86500001;stroke-linejoin:round;stroke-miterlimit:4;stroke-dasharray:none;stroke-dashoffset:0;stroke-opacity:1"
       inkscape:connector-curvature="0" />
  </g>
</svg>
