<?xml version="1.0" encoding="UTF-8" standalone="no"?>
<svg
   xmlns:dc="http://purl.org/dc/elements/1.1/"
   xmlns:cc="http://creativecommons.org/ns#"
   xmlns:rdf="http://www.w3.org/1999/02/22-rdf-syntax-ns#"
   xmlns:svg="http://www.w3.org/2000/svg"
   xmlns="http://www.w3.org/2000/svg"
   id="svg9423"
   version="1.1"
   viewBox="0 0 12.2457 12.245701"
   height="12.245701mm"
   width="12.2457mm">
  <defs
     id="defs9417" />
  <metadata
     id="metadata9420">
    <rdf:RDF>
      <cc:Work
         rdf:about="">
        <dc:format>image/svg+xml</dc:format>
        <dc:type
           rdf:resource="http://purl.org/dc/dcmitype/StillImage" />
        <dc:title></dc:title>
      </cc:Work>
    </rdf:RDF>
  </metadata>
  <g
     transform="translate(-149.60334,-30.073578)"
     id="layer1">
    <path
       id="path7907"
       d="m 151.03578,30.506078 c -0.554,0 -0.99994,0.445939 -0.99994,0.999939 v 2.96106 c 0,0.554 0.44594,0.999939 0.99994,0.999939 h 2.96106 c 0.554,0 0.99994,-0.445939 0.99994,-0.999939 v -2.96106 c 0,-0.554 -0.44594,-0.999939 -0.99994,-0.999939 z m 6.41976,0 c -0.554,0 -0.99994,0.445939 -0.99994,0.999939 v 2.96106 c 0,0.554001 0.44594,0.999939 0.99994,0.999939 h 2.96106 c 0.554,0 0.99994,-0.445938 0.99994,-0.999939 v -2.96106 c 0,-0.554 -0.44594,-0.999939 -0.99994,-0.999939 z m -6.41976,6.419763 c -0.554,0 -0.99994,0.445939 -0.99994,0.999939 v 2.96106 c 0,0.554 0.44594,0.999939 0.99994,0.999939 h 2.96106 c 0.554,0 0.99994,-0.445939 0.99994,-0.999939 v -2.96106 c 0,-0.554 -0.44594,-0.999939 -0.99994,-0.999939 z m 6.41976,0 c -0.554,0 -0.99994,0.445939 -0.99994,0.999939 v 2.96106 c 0,0.554001 0.44594,0.999939 0.99994,0.999939 h 2.96106 c 0.554,0 0.99994,-0.445938 0.99994,-0.999939 v -2.96106 c 0,-0.554 -0.44594,-0.999939 -0.99994,-0.999939 z"
       style="fill:none;fill-opacity:1;fill-rule:nonzero;stroke:#023148;stroke-width:0.86500001;stroke-linejoin:round;stroke-miterlimit:4;stroke-dasharray:none;stroke-dashoffset:0;stroke-opacity:1" />
  </g>
</svg>
