<?xml version="1.0" encoding="UTF-8" standalone="no"?>
<!-- Created with Inkscape (http://www.inkscape.org/) -->

<svg
   xmlns:dc="http://purl.org/dc/elements/1.1/"
   xmlns:cc="http://creativecommons.org/ns#"
   xmlns:rdf="http://www.w3.org/1999/02/22-rdf-syntax-ns#"
   xmlns:svg="http://www.w3.org/2000/svg"
   xmlns="http://www.w3.org/2000/svg"
   xmlns:sodipodi="http://sodipodi.sourceforge.net/DTD/sodipodi-0.dtd"
   xmlns:inkscape="http://www.inkscape.org/namespaces/inkscape"
   width="20.70875mm"
   height="20.70875mm"
   viewBox="0 0 20.708749 20.70875"
   version="1.1"
   id="svg905"
   inkscape:version="0.92.4 (5da689c313, 2019-01-14)"
   sodipodi:docname="icon_blue_picture.svg">
  <defs
     id="defs899" />
  <sodipodi:namedview
     id="base"
     pagecolor="#ffffff"
     bordercolor="#666666"
     borderopacity="1.0"
     inkscape:pageopacity="0.0"
     inkscape:pageshadow="2"
     inkscape:zoom="5.6"
     inkscape:cx="9.3244915"
     inkscape:cy="29.934348"
     inkscape:document-units="mm"
     inkscape:current-layer="layer1"
     showgrid="false"
     inkscape:window-width="1920"
     inkscape:window-height="1001"
     inkscape:window-x="3831"
     inkscape:window-y="1071"
     inkscape:window-maximized="1" />
  <metadata
     id="metadata902">
    <rdf:RDF>
      <cc:Work
         rdf:about="">
        <dc:format>image/svg+xml</dc:format>
        <dc:type
           rdf:resource="http://purl.org/dc/dcmitype/StillImage" />
        <dc:title></dc:title>
      </cc:Work>
    </rdf:RDF>
  </metadata>
  <g
     inkscape:label="Layer 1"
     inkscape:groupmode="layer"
     id="layer1"
     transform="translate(-142.24418,-115.17414)">
    <circle
       style="fill:#023148;fill-opacity:0.97647059;fill-rule:nonzero;stroke:#023148;stroke-width:0.86500001;stroke-linecap:round;stroke-linejoin:round;stroke-miterlimit:4;stroke-dasharray:none;stroke-dashoffset:0;stroke-opacity:1"
       id="path1456"
       cx="152.59856"
       cy="125.52851"
       r="9.921875" />
    <path
       inkscape:connector-curvature="0"
       style="color:#000000;font-style:normal;font-variant:normal;font-weight:normal;font-stretch:normal;font-size:medium;line-height:normal;font-family:sans-serif;font-variant-ligatures:normal;font-variant-position:normal;font-variant-caps:normal;font-variant-numeric:normal;font-variant-alternates:normal;font-feature-settings:normal;text-indent:0;text-align:start;text-decoration:none;text-decoration-line:none;text-decoration-style:solid;text-decoration-color:#000000;letter-spacing:normal;word-spacing:normal;text-transform:none;writing-mode:lr-tb;direction:ltr;text-orientation:mixed;dominant-baseline:auto;baseline-shift:baseline;text-anchor:start;white-space:normal;shape-padding:0;clip-rule:nonzero;display:inline;overflow:visible;visibility:visible;opacity:1;isolation:auto;mix-blend-mode:normal;color-interpolation:sRGB;color-interpolation-filters:linearRGB;solid-color:#000000;solid-opacity:1;vector-effect:none;fill:#ffffff;fill-opacity:1;fill-rule:nonzero;stroke:#ffffff;stroke-width:0.6;stroke-linecap:round;stroke-linejoin:round;stroke-miterlimit:4;stroke-dasharray:none;stroke-dashoffset:0;stroke-opacity:1;color-rendering:auto;image-rendering:auto;shape-rendering:auto;text-rendering:auto;enable-background:accumulate"
       d="m 145.49889,119.67811 c -0.67175,0 -1.22515,0.5529 -1.22515,1.22465 v 9.253 c 0,0.67175 0.5534,1.22316 1.22515,1.22316 h 14.20082 c 0.67175,0 1.22366,-0.55141 1.22366,-1.22316 v -9.253 c 0,-0.67175 -0.55191,-1.22465 -1.22366,-1.22465 z m 0,0.73907 h 14.20082 c 0.27504,0 0.48409,0.21053 0.48409,0.48558 v 9.253 c 0,0.27505 -0.20905,0.48558 -0.48409,0.48558 h -14.20082 c -0.27505,0 -0.48559,-0.21053 -0.48559,-0.48558 v -9.253 c 0,-0.27505 0.21054,-0.48558 0.48559,-0.48558 z m 11.42049,0.85984 c -0.86192,0 -1.56858,0.70665 -1.56858,1.56859 0,0.86193 0.70666,1.56908 1.56858,1.56908 0.86193,0 1.5691,-0.70715 1.5691,-1.56908 0,-0.86194 -0.70717,-1.56859 -1.5691,-1.56859 z m 0,0.73907 c 0.46247,0 0.82953,0.36705 0.82953,0.82952 0,0.46246 -0.36706,0.82953 -0.82953,0.82953 -0.46246,0 -0.82952,-0.36707 -0.82952,-0.82953 0,-0.46247 0.36706,-0.82952 0.82952,-0.82952 z m -8.28629,0.75297 c -0.26736,0.006 -0.41158,0.13975 -0.56412,0.27834 -0.15253,0.13859 -0.3028,0.31493 -0.46073,0.51938 -0.31586,0.40891 -0.65594,0.93238 -0.97316,1.45528 -0.63443,1.04578 -1.17645,2.08449 -1.17645,2.08449 a 0.36961173,0.36961173 0 1 0 0.65408,0.34394 c 0,0 0.53618,-1.02458 1.15507,-2.04474 0.30944,-0.51008 0.63977,-1.02012 0.92446,-1.38867 0.14234,-0.18428 0.27546,-0.33221 0.37425,-0.42196 0.0355,-0.0322 0.0646,-0.0501 0.0874,-0.0631 0.034,0.0201 0.0949,0.0573 0.16601,0.12823 0.13862,0.13836 0.31379,0.36239 0.5005,0.63916 0.37338,0.55355 0.79682,1.31548 1.18837,2.07953 0.7831,1.52811 1.44731,3.06562 1.44731,3.06562 a 0.36961173,0.36961173 0 1 0 0.67744,-0.29374 c 0,0 -0.66971,-1.5527 -1.46719,-3.10885 -0.39875,-0.77809 -0.82892,-1.55736 -1.23311,-2.15657 -0.20209,-0.2996 -0.39495,-0.55389 -0.59095,-0.7495 -0.19601,-0.19562 -0.39138,-0.37343 -0.70925,-0.36681 z m 6.05518,2.96373 c -0.30793,-5.9e-4 -0.52799,0.14272 -0.76293,0.30367 -0.23492,0.16096 -0.46866,0.36331 -0.6824,0.56263 -0.42748,0.39865 -0.77286,0.79424 -0.77286,0.79424 a 0.36961173,0.36961173 0 1 0 0.55417,0.48758 c 0,0 0.32763,-0.37267 0.72267,-0.74106 0.19751,-0.1842 0.41282,-0.36607 0.59741,-0.49254 0.18461,-0.12648 0.35562,-0.17493 0.34394,-0.17495 -0.0383,-8e-5 0.21373,0.10923 0.46521,0.39363 0.25148,0.28441 0.53344,0.6857 0.78976,1.08997 0.51266,0.80853 0.92794,1.62376 0.92794,1.62376 a 0.36984147,0.36984147 0 0 0 0.65905,-0.33549 c 0,0 -0.42653,-0.83823 -0.96274,-1.68391 -0.2681,-0.42283 -0.56256,-0.84868 -0.85984,-1.18488 -0.29729,-0.33621 -0.56661,-0.6418 -1.01938,-0.64265 z"
       id="rect839" />
  </g>
</svg>
