<?xml version="1.0" encoding="UTF-8" standalone="no"?>
<svg
   xmlns:dc="http://purl.org/dc/elements/1.1/"
   xmlns:cc="http://creativecommons.org/ns#"
   xmlns:rdf="http://www.w3.org/1999/02/22-rdf-syntax-ns#"
   xmlns:svg="http://www.w3.org/2000/svg"
   xmlns="http://www.w3.org/2000/svg"
   id="svg13049"
   version="1.1"
   viewBox="0 0 8.21346 11.433981"
   height="11.433981mm"
   width="8.21346mm">
  <defs
     id="defs13043" />
  <metadata
     id="metadata13046">
    <rdf:RDF>
      <cc:Work
         rdf:about="">
        <dc:format>image/svg+xml</dc:format>
        <dc:type
           rdf:resource="http://purl.org/dc/dcmitype/StillImage" />
        <dc:title></dc:title>
      </cc:Work>
    </rdf:RDF>
  </metadata>
  <g
     transform="translate(-162.13492,-75.329232)"
     id="layer1">
    <path
       id="path13008"
       d="m 166.23546,75.329284 a 0.43254324,0.43254324 0 0 0 -0.42582,0.4377 v 8.730733 a 0.432615,0.432615 0 0 0 0.86507,0 v -8.730733 a 0.43254324,0.43254324 0 0 0 -0.43925,-0.4377 z m 2.30683,3.248381 a 0.43254324,0.43254324 0 0 0 -0.43201,0.433565 l -0.0661,5.480286 a 0.43265968,0.43265968 0 1 0 0.86507,0.01188 l 0.0667,-5.482353 a 0.43254324,0.43254324 0 0 0 -0.43357,-0.443384 z m -4.61935,2.706811 a 0.43254324,0.43254324 0 0 0 -0.416,0.449069 l 0.0682,2.773474 a 0.43292467,0.43292467 0 1 0 0.86559,-0.02119 l -0.0687,-2.773474 a 0.43254324,0.43254324 0 0 0 -0.44906,-0.427881 z m -1.35548,4.613156 a 0.43279007,0.43279007 0 0 0 0,0.86558 h 7.34788 a 0.43279007,0.43279007 0 1 0 0,-0.86558 z"
       style="color:#000000;font-style:normal;font-variant:normal;font-weight:normal;font-stretch:normal;font-size:medium;line-height:normal;font-family:sans-serif;font-variant-ligatures:normal;font-variant-position:normal;font-variant-caps:normal;font-variant-numeric:normal;font-variant-alternates:normal;font-feature-settings:normal;text-indent:0;text-align:start;text-decoration:none;text-decoration-line:none;text-decoration-style:solid;text-decoration-color:#000000;letter-spacing:normal;word-spacing:normal;text-transform:none;writing-mode:lr-tb;direction:ltr;text-orientation:mixed;dominant-baseline:auto;baseline-shift:baseline;text-anchor:start;white-space:normal;shape-padding:0;clip-rule:nonzero;display:inline;overflow:visible;visibility:visible;opacity:1;isolation:auto;mix-blend-mode:normal;color-interpolation:sRGB;color-interpolation-filters:linearRGB;solid-color:#000000;solid-opacity:1;vector-effect:none;fill:#023148;fill-opacity:1;fill-rule:nonzero;stroke:none;stroke-width:0.86500001;stroke-linecap:round;stroke-linejoin:miter;stroke-miterlimit:4;stroke-dasharray:none;stroke-dashoffset:0;stroke-opacity:1;color-rendering:auto;image-rendering:auto;shape-rendering:auto;text-rendering:auto;enable-background:accumulate" />
  </g>
</svg>
