<?xml version="1.0" encoding="UTF-8" standalone="no"?>
<svg
   xmlns:dc="http://purl.org/dc/elements/1.1/"
   xmlns:cc="http://creativecommons.org/ns#"
   xmlns:rdf="http://www.w3.org/1999/02/22-rdf-syntax-ns#"
   xmlns:svg="http://www.w3.org/2000/svg"
   xmlns="http://www.w3.org/2000/svg"
   id="svg3004"
   version="1.1"
   viewBox="0 0 20.70875 20.70875"
   height="20.70875mm"
   width="20.70875mm">
  <defs
     id="defs2998" />
  <metadata
     id="metadata3001">
    <rdf:RDF>
      <cc:Work
         rdf:about="">
        <dc:format>image/svg+xml</dc:format>
        <dc:type
           rdf:resource="http://purl.org/dc/dcmitype/StillImage" />
        <dc:title></dc:title>
      </cc:Work>
    </rdf:RDF>
  </metadata>
  <g
     transform="translate(-120.42538,-208.78253)"
     id="layer1">
    <circle
       r="9.921875"
       cy="219.1369"
       cx="130.77975"
       id="path1456"
       style="fill:#023148;fill-opacity:0.97647059;fill-rule:nonzero;stroke:#023148;stroke-width:0.86500001;stroke-linecap:round;stroke-linejoin:round;stroke-miterlimit:4;stroke-dasharray:none;stroke-dashoffset:0;stroke-opacity:1" />
    <path
       id="rect839-8"
       d="m 124.16362,213.6908 c -0.626,0 -1.14171,0.5147 -1.14171,1.14002 v 8.61355 c 0,0.62533 0.51571,1.13863 1.14171,1.13863 h 13.23367 c 0.626,0 1.14032,-0.5133 1.14032,-1.13863 v -8.61355 c 0,-0.62532 -0.51432,-1.14002 -1.14032,-1.14002 z m 0,0.688 h 13.23367 c 0.25631,0 0.45112,0.19598 0.45112,0.45202 v 8.61355 c 0,0.25604 -0.19481,0.45202 -0.45112,0.45202 h -13.23367 c -0.25632,0 -0.45252,-0.19598 -0.45252,-0.45202 v -8.61355 c 0,-0.25604 0.1962,-0.45202 0.45252,-0.45202 z m 10.6427,0.80042 c -0.80322,0 -1.46176,0.65781 -1.46176,1.46019 0,0.80236 0.65854,1.46064 1.46176,1.46064 0.80322,0 1.46223,-0.65828 1.46223,-1.46064 0,-0.80238 -0.65901,-1.46019 -1.46223,-1.46019 z m 0,0.68799 c 0.43097,0 0.77303,0.34169 0.77303,0.7722 0,0.4305 -0.34206,0.7722 -0.77303,0.7722 -0.43097,0 -0.77303,-0.3417 -0.77303,-0.7722 0,-0.43051 0.34206,-0.7722 0.77303,-0.7722 z m -7.72195,0.70094 c -0.24916,0.006 -0.38355,0.13009 -0.5257,0.2591 -0.14215,0.12901 -0.28218,0.29317 -0.42936,0.48349 -0.29434,0.38065 -0.61126,0.86795 -0.90688,1.35471 -0.59122,0.97351 -1.09633,1.94043 -1.09633,1.94043 a 0.34443919,0.34406888 0 1 0 0.60954,0.32018 c 0,0 0.49966,-0.95378 1.0764,-1.90344 0.28837,-0.47483 0.5962,-0.94962 0.8615,-1.2927 0.13265,-0.17154 0.2567,-0.30925 0.34876,-0.3928 0.0331,-0.03 0.0602,-0.0466 0.0815,-0.0587 0.0317,0.0187 0.0884,0.0533 0.1547,0.11937 0.12918,0.1288 0.29242,0.33735 0.46642,0.59499 0.34795,0.51529 0.74255,1.22457 1.10743,1.93582 0.72977,1.4225 1.34874,2.85376 1.34874,2.85376 a 0.34443919,0.34406888 0 1 0 0.63131,-0.27344 c 0,0 -0.6241,-1.4454 -1.36727,-2.89401 -0.37159,-0.72431 -0.77247,-1.44973 -1.14913,-2.00753 -0.18833,-0.2789 -0.36805,-0.51561 -0.5507,-0.6977 -0.18266,-0.1821 -0.36473,-0.34763 -0.66095,-0.34146 z m 5.64279,2.75891 c -0.28696,-5.3e-4 -0.49203,0.13286 -0.71097,0.28269 -0.21892,0.14983 -0.43675,0.3382 -0.63593,0.52374 -0.39837,0.3711 -0.72022,0.73936 -0.72022,0.73936 a 0.34443919,0.34406888 0 1 0 0.51643,0.45388 c 0,0 0.30531,-0.34692 0.67345,-0.68985 0.18406,-0.17147 0.3847,-0.34077 0.55672,-0.4585 0.17204,-0.11774 0.3314,-0.16284 0.32052,-0.16286 -0.0357,-7e-5 0.19917,0.10168 0.43352,0.36643 0.23436,0.26475 0.49711,0.63831 0.73598,1.01464 0.47774,0.75266 0.86474,1.51155 0.86474,1.51155 a 0.34465329,0.34428274 0 0 0 0.61416,-0.3123 c 0,0 -0.39748,-0.78031 -0.89717,-1.56754 -0.24984,-0.39361 -0.52425,-0.79003 -0.80128,-1.103 -0.27704,-0.31298 -0.52802,-0.59745 -0.94995,-0.59824 z"
       style="color:#000000;font-style:normal;font-variant:normal;font-weight:normal;font-stretch:normal;font-size:medium;line-height:normal;font-family:sans-serif;font-variant-ligatures:normal;font-variant-position:normal;font-variant-caps:normal;font-variant-numeric:normal;font-variant-alternates:normal;font-feature-settings:normal;text-indent:0;text-align:start;text-decoration:none;text-decoration-line:none;text-decoration-style:solid;text-decoration-color:#000000;letter-spacing:normal;word-spacing:normal;text-transform:none;writing-mode:lr-tb;direction:ltr;text-orientation:mixed;dominant-baseline:auto;baseline-shift:baseline;text-anchor:start;white-space:normal;shape-padding:0;clip-rule:nonzero;display:inline;overflow:visible;visibility:visible;opacity:1;isolation:auto;mix-blend-mode:normal;color-interpolation:sRGB;color-interpolation-filters:linearRGB;solid-color:#000000;solid-opacity:1;vector-effect:none;fill:#ffffff;fill-opacity:1;fill-rule:nonzero;stroke:#ffffff;stroke-width:0.60000002;stroke-linecap:round;stroke-linejoin:round;stroke-miterlimit:4;stroke-dasharray:none;stroke-dashoffset:0;stroke-opacity:1;color-rendering:auto;image-rendering:auto;shape-rendering:auto;text-rendering:auto;enable-background:accumulate" />
  </g>
</svg>
