<?xml version="1.0" encoding="UTF-8" standalone="no"?>
<svg
   xmlns:dc="http://purl.org/dc/elements/1.1/"
   xmlns:cc="http://creativecommons.org/ns#"
   xmlns:rdf="http://www.w3.org/1999/02/22-rdf-syntax-ns#"
   xmlns:svg="http://www.w3.org/2000/svg"
   xmlns="http://www.w3.org/2000/svg"
   id="svg11136"
   version="1.1"
   viewBox="0 0 13.15024 12.59627"
   height="12.59627mm"
   width="13.15024mm">
  <defs
     id="defs11130" />
  <metadata
     id="metadata11133">
    <rdf:RDF>
      <cc:Work
         rdf:about="">
        <dc:format>image/svg+xml</dc:format>
        <dc:type
           rdf:resource="http://purl.org/dc/dcmitype/StillImage" />
        <dc:title></dc:title>
      </cc:Work>
    </rdf:RDF>
  </metadata>
  <g
     transform="translate(-131.00821,-141.77925)"
     id="layer1">
    <path
       id="path9112"
       d="m 136.0178,142.20875 a 1.7818401,1.7851035 0 0 0 -1.78181,1.78542 1.7818401,1.7851035 0 0 0 1.78181,1.7849 1.7818401,1.7851035 0 0 0 1.78232,-1.7849 1.7818401,1.7851035 0 0 0 -1.78232,-1.78542 z m 4.72477,0.92966 a 1.5371466,1.5399672 0 0 0 -1.53737,1.53944 1.5371466,1.5399672 0 0 0 1.53737,1.54047 1.5371466,1.5399672 0 0 0 1.53686,-1.54047 1.5371466,1.5399672 0 0 0 -1.53686,-1.53944 z m -7.63674,3.55482 a 1.6679946,1.6710552 0 0 0 -1.66812,1.67121 1.6679946,1.6710552 0 0 0 1.66812,1.67122 1.6679946,1.6710552 0 0 0 1.66812,-1.67122 1.6679946,1.6710552 0 0 0 -1.66812,-1.67121 z m 9.30641,1.08469 a 1.3166981,1.3191141 0 0 0 -1.31723,1.31929 1.3166981,1.3191141 0 0 0 1.31723,1.31879 1.3166981,1.3191141 0 0 0 1.31671,-1.31879 1.3166981,1.3191141 0 0 0 -1.31671,-1.31929 z m -2.74299,3.25664 a 1.4538155,1.4560388 0 0 0 -1.45365,1.45573 1.4538155,1.4560388 0 0 0 1.45365,1.45573 1.4538155,1.4560388 0 0 0 1.45418,-1.45573 1.4538155,1.4560388 0 0 0 -1.45418,-1.45573 z m -4.23075,0.12764 a 1.239495,1.2417575 0 0 0 -1.23971,1.24179 1.239495,1.2417575 0 0 0 1.23971,1.24178 1.239495,1.2417575 0 0 0 1.23972,-1.24178 1.239495,1.2417575 0 0 0 -1.23972,-1.24179 z"
       style="color:#000000;font-style:normal;font-variant:normal;font-weight:normal;font-stretch:normal;font-size:medium;line-height:normal;font-family:sans-serif;font-variant-ligatures:normal;font-variant-position:normal;font-variant-caps:normal;font-variant-numeric:normal;font-variant-alternates:normal;font-feature-settings:normal;text-indent:0;text-align:start;text-decoration:none;text-decoration-line:none;text-decoration-style:solid;text-decoration-color:#000000;letter-spacing:normal;word-spacing:normal;text-transform:none;writing-mode:lr-tb;direction:ltr;text-orientation:mixed;dominant-baseline:auto;baseline-shift:baseline;text-anchor:start;white-space:normal;shape-padding:0;clip-rule:nonzero;display:inline;overflow:visible;visibility:visible;opacity:1;isolation:auto;mix-blend-mode:normal;color-interpolation:sRGB;color-interpolation-filters:linearRGB;solid-color:#000000;solid-opacity:1;vector-effect:none;fill:none;fill-opacity:1;fill-rule:evenodd;stroke:#023148;stroke-width:0.85899997;stroke-linecap:butt;stroke-linejoin:miter;stroke-miterlimit:4;stroke-dasharray:none;stroke-dashoffset:0;stroke-opacity:1;color-rendering:auto;image-rendering:auto;shape-rendering:auto;text-rendering:auto;enable-background:accumulate" />
  </g>
</svg>
