<?xml version="1.0" encoding="UTF-8" standalone="no"?>
<!-- Created with Inkscape (http://www.inkscape.org/) -->

<svg
   xmlns:dc="http://purl.org/dc/elements/1.1/"
   xmlns:cc="http://creativecommons.org/ns#"
   xmlns:rdf="http://www.w3.org/1999/02/22-rdf-syntax-ns#"
   xmlns:svg="http://www.w3.org/2000/svg"
   xmlns="http://www.w3.org/2000/svg"
   xmlns:sodipodi="http://sodipodi.sourceforge.net/DTD/sodipodi-0.dtd"
   xmlns:inkscape="http://www.inkscape.org/namespaces/inkscape"
   width="210mm"
   height="297mm"
   viewBox="0 0 210 297"
   version="1.1"
   id="svg3585"
   inkscape:version="0.92.4 (5da689c313, 2019-01-14)"
   sodipodi:docname="svg_icons.svg">
  <defs
     id="defs3579" />
  <sodipodi:namedview
     id="base"
     pagecolor="#ffffff"
     bordercolor="#666666"
     borderopacity="1.0"
     inkscape:pageopacity="0.0"
     inkscape:pageshadow="2"
     inkscape:zoom="7.9195959"
     inkscape:cx="318.55051"
     inkscape:cy="1081.3316"
     inkscape:document-units="mm"
     inkscape:current-layer="layer1"
     showgrid="false"
     inkscape:window-width="1920"
     inkscape:window-height="1001"
     inkscape:window-x="3831"
     inkscape:window-y="1071"
     inkscape:window-maximized="1"
     inkscape:snap-bbox="false"
     inkscape:bbox-paths="true"
     inkscape:object-paths="false" />
  <metadata
     id="metadata3582">
    <rdf:RDF>
      <cc:Work
         rdf:about="">
        <dc:format>image/svg+xml</dc:format>
        <dc:type
           rdf:resource="http://purl.org/dc/dcmitype/StillImage" />
        <dc:title />
      </cc:Work>
    </rdf:RDF>
  </metadata>
  <g
     inkscape:label="Layer 1"
     inkscape:groupmode="layer"
     id="layer1">
    <path
       style="fill:none;fill-opacity:1;fill-rule:nonzero;stroke:#023148;stroke-width:3.2692914;stroke-linejoin:round;stroke-miterlimit:4;stroke-dasharray:none;stroke-dashoffset:0;stroke-opacity:1"
       d="m 10.625,11.894531 c -2.0938594,0 -3.7792969,1.685438 -3.7792969,3.779297 v 11.191406 c 0,2.09386 1.6854375,3.779297 3.7792969,3.779297 h 11.191406 c 2.09386,0 3.779297,-1.685437 3.779297,-3.779297 V 15.673828 c 0,-2.093859 -1.685437,-3.779297 -3.779297,-3.779297 z m 24.263672,0 c -2.09386,0 -3.779297,1.685438 -3.779297,3.779297 v 11.191406 c 0,2.093862 1.685437,3.779297 3.779297,3.779297 h 11.191406 c 2.093858,0 3.779297,-1.685435 3.779297,-3.779297 V 15.673828 c 0,-2.093859 -1.685439,-3.779297 -3.779297,-3.779297 z M 10.625,36.158203 c -2.0938602,0 -3.7792969,1.685439 -3.7792969,3.779297 v 11.191406 c 0,2.093859 1.6854367,3.779297 3.7792969,3.779297 h 11.191406 c 2.093862,0 3.779297,-1.685438 3.779297,-3.779297 V 39.9375 c 0,-2.093858 -1.685435,-3.779297 -3.779297,-3.779297 z m 24.263672,0 c -2.09386,0 -3.779297,1.685439 -3.779297,3.779297 v 11.191406 c 0,2.093862 1.685437,3.779297 3.779297,3.779297 h 11.191406 c 2.093862,0 3.779297,-1.685435 3.779297,-3.779297 V 39.9375 c 0,-2.093858 -1.685435,-3.779297 -3.779297,-3.779297 z"
       transform="scale(0.26458333)"
       id="path7907"
       inkscape:connector-curvature="0" />
    <path
       style="fill:none;fill-opacity:1;stroke:#023148;stroke-width:3.2692914;stroke-linecap:butt;stroke-linejoin:miter;stroke-miterlimit:4;stroke-dasharray:none;stroke-opacity:1"
       d="m 105.375,11.939453 c 0,0 -8.102321,9.507875 -10.208984,15.150391 -1.563232,4.186983 -2.005622,12.317117 2.453125,13.177734 5.741999,1.108305 8.644569,-6.592678 9.099609,-11.439453 C 107.18146,23.899803 105.375,11.939453 105.375,11.939453 Z M 77.951172,28.773438 c 0,0 0.292735,11.960983 2.570312,17.304687 1.690024,3.965269 6.99357,9.978551 11.064454,7.6875 C 96.828437,50.815178 93.736103,43.504849 90.724609,39.794922 87.662474,36.022558 77.951172,28.773438 77.951172,28.773438 Z m 45.115238,6.513671 c 0,0 -3.07267,0.866586 -6.75782,2.167969 -3.68528,1.301184 -7.98518,3.038099 -10.44921,4.779297 -3.65682,2.584078 -8.494541,8.971244 -5.07422,12.027344 4.40473,3.935671 11.15617,-0.806897 14.20703,-4.513672 3.10221,-3.76913 8.07422,-14.460939 8.07422,-14.460938 z"
       transform="scale(0.26458333)"
       id="path11728"
       inkscape:connector-curvature="0" />
    <circle
       style="fill:none;fill-opacity:1;fill-rule:nonzero;stroke:#023148;stroke-width:0.86500001;stroke-linejoin:round;stroke-miterlimit:4;stroke-dasharray:none;stroke-dashoffset:0;stroke-opacity:1"
       id="path7949"
       cx="44.719311"
       cy="7.8718371"
       r="6.0712423" />
    <path
       style="color:#000000;font-style:normal;font-variant:normal;font-weight:normal;font-stretch:normal;font-size:medium;line-height:normal;font-family:sans-serif;font-variant-ligatures:normal;font-variant-position:normal;font-variant-caps:normal;font-variant-numeric:normal;font-variant-alternates:normal;font-feature-settings:normal;text-indent:0;text-align:start;text-decoration:none;text-decoration-line:none;text-decoration-style:solid;text-decoration-color:#000000;letter-spacing:normal;word-spacing:normal;text-transform:none;writing-mode:lr-tb;direction:ltr;text-orientation:mixed;dominant-baseline:auto;baseline-shift:baseline;text-anchor:start;white-space:normal;shape-padding:0;clip-rule:nonzero;display:inline;overflow:visible;visibility:visible;opacity:1;isolation:auto;mix-blend-mode:normal;color-interpolation:sRGB;color-interpolation-filters:linearRGB;solid-color:#000000;solid-opacity:1;vector-effect:none;fill:none;fill-opacity:1;fill-rule:evenodd;stroke:#023148;stroke-width:0.85899997;stroke-linecap:butt;stroke-linejoin:miter;stroke-miterlimit:4;stroke-dasharray:none;stroke-dashoffset:0;stroke-opacity:1;color-rendering:auto;image-rendering:auto;shape-rendering:auto;text-rendering:auto;enable-background:accumulate"
       d="m 60.722243,2.2981986 a 1.7818401,1.7851035 0 0 0 -1.781804,1.7854208 1.7818401,1.7851035 0 0 0 1.781804,1.7849037 1.7818401,1.7851035 0 0 0 1.782321,-1.7849037 1.7818401,1.7851035 0 0 0 -1.782321,-1.7854208 z m 4.724776,0.9296588 A 1.5371466,1.5399672 0 0 0 63.909644,4.7672985 1.5371466,1.5399672 0 0 0 65.447019,6.307773 1.5371466,1.5399672 0 0 0 66.983875,4.7672985 1.5371466,1.5399672 0 0 0 65.447019,3.2278574 Z m -7.636743,3.5548218 a 1.6679946,1.6710552 0 0 0 -1.668116,1.671216 1.6679946,1.6710552 0 0 0 1.668116,1.6712158 1.6679946,1.6710552 0 0 0 1.668116,-1.6712158 1.6679946,1.6710552 0 0 0 -1.668116,-1.671216 z m 9.306409,1.0846885 A 1.3166981,1.3191141 0 0 0 65.799452,9.1866669 1.3166981,1.3191141 0 0 0 67.116685,10.505449 1.3166981,1.3191141 0 0 0 68.4334,9.1866669 1.3166981,1.3191141 0 0 0 67.116685,7.8673677 Z M 64.3737,11.124016 a 1.4538155,1.4560388 0 0 0 -1.453658,1.455725 1.4538155,1.4560388 0 0 0 1.453658,1.455726 1.4538155,1.4560388 0 0 0 1.454173,-1.455726 1.4538155,1.4560388 0 0 0 -1.454173,-1.455725 z m -4.230749,0.127641 a 1.239495,1.2417575 0 0 0 -1.239718,1.241785 1.239495,1.2417575 0 0 0 1.239718,1.241784 1.239495,1.2417575 0 0 0 1.239716,-1.241784 1.239495,1.2417575 0 0 0 -1.239716,-1.241785 z"
       id="path9112"
       inkscape:connector-curvature="0" />
    <path
       style="color:#000000;font-style:normal;font-variant:normal;font-weight:normal;font-stretch:normal;font-size:medium;line-height:normal;font-family:sans-serif;font-variant-ligatures:normal;font-variant-position:normal;font-variant-caps:normal;font-variant-numeric:normal;font-variant-alternates:normal;font-feature-settings:normal;text-indent:0;text-align:start;text-decoration:none;text-decoration-line:none;text-decoration-style:solid;text-decoration-color:#000000;letter-spacing:normal;word-spacing:normal;text-transform:none;writing-mode:lr-tb;direction:ltr;text-orientation:mixed;dominant-baseline:auto;baseline-shift:baseline;text-anchor:start;white-space:normal;shape-padding:0;clip-rule:nonzero;display:inline;overflow:visible;visibility:visible;opacity:1;isolation:auto;mix-blend-mode:normal;color-interpolation:sRGB;color-interpolation-filters:linearRGB;solid-color:#000000;solid-opacity:1;vector-effect:none;fill:#023148;fill-opacity:1;fill-rule:nonzero;stroke:none;stroke-width:0.86500001;stroke-linecap:butt;stroke-linejoin:round;stroke-miterlimit:4;stroke-dasharray:none;stroke-dashoffset:0;stroke-opacity:1;color-rendering:auto;image-rendering:auto;shape-rendering:auto;text-rendering:auto;enable-background:accumulate"
       d="m 79.200441,1.0247436 -6.052758,7.0874226 a 0.58844222,0.54238284 0 1 0 0.924507,0.67076 l 5.128251,-6.0048012 5.131052,6.0048012 a 0.58844222,0.54238284 0 1 0 0.924508,-0.67076 z m 3.490594,7.3282347 a 0.54351246,0.50096988 0 0 0 -0.538782,0.51108 v 4.6632807 h -1.393772 v -3.072163 h -3.112719 v 3.072163 H 76.250871 V 8.8640583 A 0.5434198,0.50088447 0 0 0 75.698632,8.3545287 0.5434198,0.50088447 0 0 0 75.164334,8.8640583 V 14.529862 H 83.23935 V 8.8640583 a 0.54351246,0.50096988 0 0 0 -0.548315,-0.51108 z m -4.106748,2.9672607 h 1.235669 v 2.2071 h -1.235669 z"
       id="path1279"
       inkscape:connector-curvature="0" />
    <path
       style="color:#000000;font-style:normal;font-variant:normal;font-weight:normal;font-stretch:normal;font-size:medium;line-height:normal;font-family:sans-serif;font-variant-ligatures:normal;font-variant-position:normal;font-variant-caps:normal;font-variant-numeric:normal;font-variant-alternates:normal;font-feature-settings:normal;text-indent:0;text-align:start;text-decoration:none;text-decoration-line:none;text-decoration-style:solid;text-decoration-color:#000000;letter-spacing:normal;word-spacing:normal;text-transform:none;writing-mode:lr-tb;direction:ltr;text-orientation:mixed;dominant-baseline:auto;baseline-shift:baseline;text-anchor:start;white-space:normal;shape-padding:0;clip-rule:nonzero;display:inline;overflow:visible;visibility:visible;opacity:1;isolation:auto;mix-blend-mode:normal;color-interpolation:sRGB;color-interpolation-filters:linearRGB;solid-color:#000000;solid-opacity:1;vector-effect:none;fill:#023148;fill-opacity:1;fill-rule:nonzero;stroke:none;stroke-width:0.86500001;stroke-linecap:round;stroke-linejoin:miter;stroke-miterlimit:4;stroke-dasharray:none;stroke-dashoffset:0;stroke-opacity:1;color-rendering:auto;image-rendering:auto;shape-rendering:auto;text-rendering:auto;enable-background:accumulate"
       d="m 93.340219,3.2127499 c -0.287981,0.00471 -0.580692,0.035617 -0.875398,0.095085 -2.086372,0.4209994 -3.171,1.952653 -3.67161,3.4121949 -0.500613,1.459542 -0.481965,2.8684254 -0.455271,3.3202102 a 0.43254324,0.43254324 0 1 0 0.863515,-0.050643 c -0.02114,-0.3579011 -0.03137,-1.7022101 0.409792,-2.9884481 0.441172,-1.286238 1.269728,-2.4914005 3.02359,-2.8453042 1.30166,-0.2626561 2.510089,0.1285113 3.460771,0.9746173 0.950669,0.846106 1.628899,2.1554143 1.785419,3.7031331 0.119771,1.1842749 -0.321977,2.5424559 -0.869196,3.6561079 -0.547222,1.113651 -1.21308,2.006127 -1.38493,2.200899 a 0.43256357,0.43256357 0 1 0 0.648539,0.572575 c 0.278532,-0.315663 0.925216,-1.199386 1.511535,-2.392619 0.58633,-1.193232 1.100252,-2.673603 0.953432,-4.1253295 C 98.563676,6.9978202 97.798299,5.4879591 96.670248,4.4839902 95.753716,3.6682655 94.588144,3.1923597 93.340219,3.2127499 Z m 0.346233,2.1228679 c -0.593751,0.015663 -1.213434,0.2361965 -1.807641,0.6676594 -0.841756,0.6112049 -1.285473,1.4253281 -1.496033,2.2634278 -0.210561,0.8380995 -0.208931,1.7038632 -0.203089,2.507857 a 0.4328002,0.4328002 0 1 0 0.865581,-0.0057 c -0.0058,-0.7978861 5.3e-4,-1.5940703 0.1757,-2.2908164 0.175048,-0.696746 0.498448,-1.2895169 1.167886,-1.775602 0.642835,-0.4667742 1.195578,-0.5751338 1.701189,-0.4687054 0.5056,0.1064281 0.995037,0.4504258 1.421617,1.0175089 a 0.43254324,0.43254324 0 1 0 0.691433,-0.519348 C 95.686194,6.044767 95.031337,5.548097 94.26988,5.3878122 94.079517,5.3477407 93.884369,5.3303981 93.686452,5.3356189 Z m 0.441833,2.2608439 c -0.188679,-0.00523 -0.381587,0.027239 -0.567407,0.096118 -0.720711,0.2671509 -1.195898,0.7955198 -1.422135,1.4081829 -0.226237,0.6126628 -0.236842,1.2952504 -0.160197,1.9843754 0.154535,1.389452 1.679768,2.298674 2.970876,1.753898 1.008481,-0.425525 1.46544,-1.39538 1.673802,-2.226221 0.10418,-0.415421 0.149545,-0.808098 0.171564,-1.1151774 0.02199,-0.3070797 0.0209,-0.560025 0.0217,-0.5823934 a 0.43289706,0.43289706 0 1 0 -0.865066,-0.031006 c -0.004,0.1104426 -1.56e-4,0.2787729 -0.01963,0.5508707 -0.0195,0.272098 -0.06078,0.6179371 -0.148312,0.9668661 -0.175012,0.697858 -0.516263,1.363513 -1.172023,1.64021 -0.72473,0.305796 -1.686216,-0.267588 -1.773533,-1.052649 -0.0681,-0.612813 -0.04122,-1.1715555 0.11317,-1.589567 0.15435,-0.4180115 0.402968,-0.7084406 0.91054,-0.8965861 0.17544,-0.06503 0.325953,-0.049911 0.427363,0 0.101401,0.049911 0.170132,0.1237456 0.199472,0.2888713 0.0959,0.5398338 -0.203507,1.0313143 -0.661977,1.7869708 a 0.43293715,0.43293715 0 1 0 0.740007,0.449585 C 95.018203,10.284308 95.503219,9.5578759 95.34009,8.6398088 95.267391,8.2304772 95.007517,7.8939216 94.669845,7.7277199 94.501017,7.6446188 94.316957,7.6016952 94.128277,7.5964617 Z"
       id="path12417"
       inkscape:connector-curvature="0" />
    <path
       style="color:#000000;font-style:normal;font-variant:normal;font-weight:normal;font-stretch:normal;font-size:medium;line-height:normal;font-family:sans-serif;font-variant-ligatures:normal;font-variant-position:normal;font-variant-caps:normal;font-variant-numeric:normal;font-variant-alternates:normal;font-feature-settings:normal;text-indent:0;text-align:start;text-decoration:none;text-decoration-line:none;text-decoration-style:solid;text-decoration-color:#000000;letter-spacing:normal;word-spacing:normal;text-transform:none;writing-mode:lr-tb;direction:ltr;text-orientation:mixed;dominant-baseline:auto;baseline-shift:baseline;text-anchor:start;white-space:normal;shape-padding:0;clip-rule:nonzero;display:inline;overflow:visible;visibility:visible;opacity:1;isolation:auto;mix-blend-mode:normal;color-interpolation:sRGB;color-interpolation-filters:linearRGB;solid-color:#000000;solid-opacity:1;vector-effect:none;fill:#023148;fill-opacity:1;fill-rule:nonzero;stroke:none;stroke-width:3.2692914;stroke-linecap:round;stroke-linejoin:miter;stroke-miterlimit:4;stroke-dasharray:none;stroke-dashoffset:0;stroke-opacity:1;color-rendering:auto;image-rendering:auto;shape-rendering:auto;text-rendering:auto;enable-background:accumulate"
       d="m 411.73242,12.474609 a 1.6348091,1.6348091 0 0 0 -1.60937,1.654297 v 32.998047 a 1.6350803,1.6350803 0 0 0 3.26953,0 V 14.128906 a 1.6348091,1.6348091 0 0 0 -1.66016,-1.654297 z m 8.71875,12.277344 a 1.6348091,1.6348091 0 0 0 -1.63281,1.638672 l -0.25,20.712891 a 1.6352492,1.6352492 0 1 0 3.26953,0.04492 l 0.25195,-20.720704 a 1.6348091,1.6348091 0 0 0 -1.63867,-1.675781 z m -17.45898,10.230469 a 1.6348091,1.6348091 0 0 0 -1.57227,1.697266 l 0.25781,10.482421 a 1.636235,1.636235 0 1 0 3.27149,-0.08008 l -0.25977,-10.482422 a 1.6348091,1.6348091 0 0 0 -1.69726,-1.617187 z m -5.12305,17.435547 a 1.635742,1.635742 0 0 0 0,3.271484 h 27.77148 a 1.635742,1.635742 0 1 0 0,-3.271484 z"
       transform="scale(0.26458333)"
       id="path13008"
       inkscape:connector-curvature="0" />
    <path
       style="color:#000000;font-style:normal;font-variant:normal;font-weight:normal;font-stretch:normal;font-size:medium;line-height:normal;font-family:sans-serif;font-variant-ligatures:normal;font-variant-position:normal;font-variant-caps:normal;font-variant-numeric:normal;font-variant-alternates:normal;font-feature-settings:normal;text-indent:0;text-align:start;text-decoration:none;text-decoration-line:none;text-decoration-style:solid;text-decoration-color:#000000;letter-spacing:normal;word-spacing:normal;text-transform:none;writing-mode:lr-tb;direction:ltr;text-orientation:mixed;dominant-baseline:auto;baseline-shift:baseline;text-anchor:start;white-space:normal;shape-padding:0;clip-rule:nonzero;display:inline;overflow:visible;visibility:visible;opacity:1;isolation:auto;mix-blend-mode:normal;color-interpolation:sRGB;color-interpolation-filters:linearRGB;solid-color:#000000;solid-opacity:1;vector-effect:none;fill:#023148;fill-opacity:1;fill-rule:nonzero;stroke:none;stroke-width:3.2692914;stroke-linecap:round;stroke-linejoin:round;stroke-miterlimit:4;stroke-dasharray:none;stroke-dashoffset:0;stroke-opacity:1;color-rendering:auto;image-rendering:auto;shape-rendering:auto;text-rendering:auto;enable-background:accumulate"
       d="M 457.62695 12.3125 C 454.98722 12.3125 452.8125 14.485242 452.8125 17.125 L 452.8125 53.486328 C 452.8125 56.126094 454.98722 58.292969 457.62695 58.292969 L 513.43164 58.292969 C 516.07141 58.292969 518.24023 56.126094 518.24023 53.486328 L 518.24023 17.125 C 518.24023 14.485242 516.07141 12.3125 513.43164 12.3125 L 457.62695 12.3125 z M 457.62695 15.216797 L 513.43164 15.216797 C 514.51247 15.216797 515.33398 16.044161 515.33398 17.125 L 515.33398 53.486328 C 515.33398 54.567175 514.51247 55.394531 513.43164 55.394531 L 457.62695 55.394531 C 456.54612 55.394531 455.71875 54.567175 455.71875 53.486328 L 455.71875 17.125 C 455.71875 16.044161 456.54612 15.216797 457.62695 15.216797 z M 502.50586 18.595703 C 499.11876 18.595703 496.3418 21.372651 496.3418 24.759766 C 496.3418 28.14688 499.11876 30.925781 502.50586 30.925781 C 505.89296 30.925781 508.67187 28.14688 508.67188 24.759766 C 508.67188 21.372651 505.89296 18.595703 502.50586 18.595703 z M 502.50586 21.5 C 504.32321 21.5 505.76562 22.942425 505.76562 24.759766 C 505.76562 26.577106 504.32321 28.019531 502.50586 28.019531 C 500.68851 28.019531 499.24609 26.577106 499.24609 24.759766 C 499.24609 22.942425 500.68851 21.5 502.50586 21.5 z M 469.94336 24.458984 C 468.89273 24.480906 468.326 25.008127 467.72656 25.552734 C 467.12717 26.097342 466.53665 26.790317 465.91602 27.59375 C 464.67478 29.200612 463.33836 31.257692 462.0918 33.3125 C 459.59871 37.422113 457.46875 41.503906 457.46875 41.503906 A 1.4524562 1.4524562 0 1 0 460.03906 42.855469 C 460.03906 42.855469 462.14607 38.829238 464.57812 34.820312 C 465.79411 32.815848 467.0922 30.811562 468.21094 29.363281 C 468.77031 28.639139 469.29345 28.057791 469.68164 27.705078 C 469.82122 27.578268 469.93555 27.508024 470.02539 27.457031 C 470.15933 27.536188 470.39861 27.682377 470.67773 27.960938 C 471.22248 28.50463 471.91085 29.385029 472.64453 30.472656 C 474.11182 32.647907 475.77577 35.642041 477.31445 38.644531 C 480.39178 44.649509 483.00195 50.691406 483.00195 50.691406 A 1.4524562 1.4524562 0 1 0 485.66406 49.537109 C 485.66406 49.537109 483.03227 43.435535 479.89844 37.320312 C 478.33148 34.262686 476.64108 31.200379 475.05273 28.845703 C 474.25858 27.668365 473.5007 26.66909 472.73047 25.900391 C 471.96024 25.131684 471.19246 24.432951 469.94336 24.458984 z M 493.73828 36.105469 C 492.52823 36.103197 491.66346 36.66632 490.74023 37.298828 C 489.81705 37.931335 488.89852 38.726493 488.05859 39.509766 C 486.37874 41.076312 485.02148 42.630859 485.02148 42.630859 A 1.4524562 1.4524562 0 1 0 487.19922 44.546875 C 487.19922 44.546875 488.4867 43.082449 490.03906 41.634766 C 490.81523 40.910926 491.66131 40.196227 492.38672 39.699219 C 493.11216 39.202211 493.78416 39.011806 493.73828 39.011719 C 493.58786 39.011439 494.57817 39.440965 495.56641 40.558594 C 496.55464 41.676227 497.66264 43.253163 498.66992 44.841797 C 500.68449 48.01906 502.31641 51.222656 502.31641 51.222656 A 1.453359 1.453359 0 0 0 504.90625 49.904297 C 504.90625 49.904297 503.23017 46.610342 501.12305 43.287109 C 500.06947 41.625489 498.91235 39.952061 497.74414 38.630859 C 496.57589 37.309662 495.51753 36.10881 493.73828 36.105469 z "
       transform="scale(0.26458333)"
       id="rect839" />
  </g>
</svg>
